<?xml version="1.0" encoding="utf-8"?>
<!-- Generator: Adobe Illustrator 23.0.2, SVG Export Plug-In . SVG Version: 6.00 Build 0)  -->
<svg version="1.1" id="Layer_1" xmlns="http://www.w3.org/2000/svg" xmlns:xlink="http://www.w3.org/1999/xlink" x="0px" y="0px"
	 viewBox="0 0 150 60" style="enable-background:new 0 0 150 60;" xml:space="preserve">
<style type="text/css">
	.st0{fill:#FFFFFF;}
</style>
<g>
	<path class="st0" d="M24.49,36.42c3.41,0,6.17-2.76,6.17-6.16c0-0.97,0.23-1.89,0.63-2.71l0,0c0.14,0,0.26-0.12,0.26-0.26l0,0
		c0-0.14-0.12-0.26-0.26-0.26H2.8c-0.14,0-0.26,0.12-0.26,0.26l0,0c0,0.14,0.12,0.26,0.26,0.26l0,0c0.4,0.82,0.63,1.74,0.63,2.71
		c0,3.4,2.76,6.16,6.17,6.16h0.04h1.87c1.77,0,3.2,1.67,3.2,3.73l-1.17,15.29c0,2.06,1.43,3.73,3.2,3.73h0.62
		c1.77,0,3.2-1.67,3.2-3.73l-1.17-15.29c0-2.06,1.43-3.73,3.2-3.73h1.87H24.49z M17.04,56.93c-0.81,0-1.47-0.66-1.47-1.47
		s0.66-1.47,1.47-1.47c0.81,0,1.47,0.66,1.47,1.47S17.86,56.93,17.04,56.93z"/>
	<g>
		<path class="st0" d="M34.42,0.76h4.39v21.17h13.23v3.99H34.42V0.76z"/>
		<path class="st0" d="M56.68,0.76h11.27c2.89,0,5.08,0.74,6.57,2.23c1.12,1.13,1.69,2.52,1.69,4.17v0.07c0,0.77-0.1,1.44-0.3,2.03
			c-0.2,0.59-0.46,1.1-0.78,1.55c-0.32,0.44-0.7,0.83-1.14,1.17c-0.44,0.34-0.89,0.62-1.34,0.86c0.74,0.26,1.41,0.57,2.02,0.92
			c0.61,0.35,1.13,0.76,1.57,1.24c0.44,0.48,0.78,1.04,1.02,1.69c0.24,0.65,0.36,1.4,0.36,2.26v0.07c0,1.13-0.22,2.12-0.66,2.98
			c-0.44,0.86-1.07,1.58-1.88,2.16c-0.81,0.57-1.79,1.01-2.94,1.31c-1.15,0.3-2.42,0.45-3.8,0.45H56.68V0.76z M67.08,11.36
			c1.43,0,2.58-0.28,3.44-0.84c0.86-0.56,1.29-1.42,1.29-2.57V7.88c0-1.01-0.38-1.79-1.13-2.35c-0.75-0.56-1.85-0.84-3.28-0.84
			h-6.34v6.69H67.08z M68.37,22c1.51,0,2.69-0.29,3.55-0.86c0.86-0.58,1.29-1.44,1.29-2.59v-0.07c0-1.08-0.42-1.91-1.27-2.5
			c-0.85-0.59-2.14-0.88-3.89-0.88h-6.99V22H68.37z"/>
		<path class="st0" d="M82.88,0.76h4.39v25.16h-4.39V0.76z"/>
		<path class="st0" d="M106.03,26.35c-1.94,0-3.72-0.34-5.32-1.02c-1.61-0.68-2.98-1.61-4.13-2.79c-1.15-1.17-2.05-2.55-2.7-4.12
			c-0.65-1.57-0.97-3.24-0.97-5.01v-0.07c0-1.77,0.32-3.44,0.97-5.01c0.65-1.57,1.56-2.95,2.73-4.13c1.17-1.19,2.56-2.13,4.17-2.82
			c1.61-0.69,3.38-1.04,5.32-1.04c1.94,0,3.71,0.34,5.32,1.02c1.61,0.68,2.98,1.61,4.13,2.79c1.15,1.17,2.05,2.55,2.7,4.12
			c0.65,1.57,0.97,3.24,0.97,5.01v0.07c0,1.77-0.32,3.45-0.97,5.01c-0.65,1.57-1.56,2.95-2.73,4.13c-1.17,1.19-2.57,2.13-4.17,2.82
			C109.75,26.01,107.97,26.35,106.03,26.35z M106.1,22.29c1.24,0,2.38-0.23,3.42-0.7c1.04-0.47,1.93-1.1,2.67-1.91
			c0.74-0.8,1.32-1.74,1.74-2.82c0.42-1.08,0.63-2.23,0.63-3.45v-0.07c0-1.22-0.21-2.38-0.63-3.47c-0.42-1.09-1-2.04-1.75-2.84
			c-0.75-0.8-1.65-1.44-2.7-1.92c-1.05-0.48-2.2-0.72-3.44-0.72c-1.24,0-2.38,0.23-3.42,0.7c-1.04,0.47-1.93,1.1-2.67,1.91
			c-0.74,0.8-1.32,1.74-1.74,2.82c-0.42,1.08-0.63,2.23-0.63,3.45v0.07c0,1.22,0.21,2.38,0.63,3.47c0.42,1.09,1,2.04,1.75,2.84
			c0.75,0.8,1.65,1.44,2.7,1.92C103.72,22.05,104.86,22.29,106.1,22.29z"/>
		<path class="st0" d="M124.58,0.76h4.09l13.45,17.4V0.76h4.39v25.16h-3.7l-13.85-17.9v17.9h-4.39V0.76z"/>
	</g>
	<g>
		<path class="st0" d="M34.43,32.58h1.54c0.23,0,0.43,0.03,0.61,0.09c0.18,0.06,0.33,0.15,0.45,0.27c0.12,0.12,0.22,0.25,0.29,0.41
			c0.07,0.16,0.1,0.34,0.1,0.53v0.01c0,0.22-0.04,0.41-0.12,0.58c-0.08,0.17-0.19,0.3-0.33,0.41c-0.14,0.11-0.3,0.19-0.48,0.25
			c-0.18,0.06-0.38,0.08-0.59,0.08h-0.63v1.13h-0.83V32.58z M35.92,34.48c0.21,0,0.37-0.05,0.48-0.16c0.11-0.11,0.17-0.25,0.17-0.41
			V33.9c0-0.19-0.06-0.33-0.18-0.42c-0.12-0.1-0.28-0.15-0.49-0.15h-0.64v1.15H35.92z"/>
		<path class="st0" d="M41.2,32.55h0.76l1.61,3.79h-0.87l-0.34-0.84h-1.59l-0.34,0.84h-0.84L41.2,32.55z M42.08,34.77l-0.5-1.22
			l-0.5,1.22H42.08z"/>
		<path class="st0" d="M46.08,32.58h0.83v3.77h-0.83V32.58z"/>
		<path class="st0" d="M49.74,32.58h0.76l1.77,2.32v-2.32h0.82v3.77h-0.71l-1.82-2.4v2.4h-0.82V32.58z"/>
		<path class="st0" d="M56.75,33.34h-1.15v-0.76h3.12v0.76h-1.15v3h-0.83V33.34z"/>
		<path class="st0" d="M61.25,32.58h2.84v0.74h-2.02v0.76h1.78v0.74h-1.78v0.79h2.05v0.74h-2.86V32.58z"/>
		<path class="st0" d="M66.74,32.58h1.72c0.48,0,0.84,0.13,1.1,0.38c0.21,0.22,0.32,0.5,0.32,0.86v0.01c0,0.31-0.07,0.55-0.22,0.75
			c-0.15,0.19-0.34,0.33-0.58,0.42l0.92,1.35h-0.97l-0.81-1.21h-0.01h-0.64v1.21h-0.83V32.58z M68.4,34.41
			c0.2,0,0.36-0.05,0.47-0.14c0.11-0.1,0.16-0.23,0.16-0.39v-0.01c0-0.18-0.06-0.31-0.17-0.4c-0.12-0.09-0.27-0.13-0.48-0.13h-0.82
			v1.08H68.4z"/>
		<path class="st0" d="M73.86,36.4c-0.29,0-0.57-0.05-0.85-0.15c-0.28-0.1-0.53-0.25-0.75-0.46l0.49-0.59
			c0.17,0.14,0.35,0.25,0.53,0.33c0.18,0.08,0.38,0.12,0.6,0.12c0.17,0,0.31-0.03,0.4-0.09c0.1-0.06,0.14-0.15,0.14-0.26V35.3
			c0-0.05-0.01-0.1-0.03-0.14c-0.02-0.04-0.06-0.08-0.11-0.12c-0.06-0.04-0.13-0.07-0.23-0.11c-0.1-0.04-0.23-0.07-0.39-0.11
			c-0.19-0.05-0.36-0.1-0.52-0.16c-0.15-0.06-0.29-0.13-0.39-0.21c-0.11-0.08-0.19-0.19-0.25-0.31c-0.06-0.13-0.09-0.28-0.09-0.47
			v-0.01c0-0.17,0.03-0.33,0.1-0.47c0.06-0.14,0.15-0.26,0.27-0.36c0.12-0.1,0.25-0.18,0.42-0.23c0.16-0.05,0.34-0.08,0.53-0.08
			c0.28,0,0.53,0.04,0.76,0.12c0.23,0.08,0.44,0.2,0.64,0.35l-0.43,0.62c-0.17-0.12-0.33-0.21-0.49-0.27
			c-0.16-0.07-0.32-0.1-0.48-0.1c-0.16,0-0.28,0.03-0.36,0.09c-0.08,0.06-0.12,0.14-0.12,0.23v0.01c0,0.06,0.01,0.11,0.04,0.16
			c0.02,0.05,0.07,0.09,0.13,0.12c0.06,0.04,0.14,0.07,0.25,0.1c0.11,0.03,0.24,0.07,0.4,0.11c0.19,0.05,0.36,0.11,0.51,0.17
			c0.15,0.06,0.28,0.14,0.38,0.23c0.1,0.09,0.18,0.19,0.23,0.31c0.05,0.12,0.08,0.26,0.08,0.43v0.01c0,0.19-0.03,0.35-0.1,0.5
			c-0.07,0.14-0.16,0.27-0.28,0.37c-0.12,0.1-0.27,0.17-0.43,0.23C74.25,36.37,74.06,36.4,73.86,36.4z"/>
		<path class="st0" d="M83.44,35.98c-0.15,0.13-0.32,0.23-0.5,0.3c-0.18,0.08-0.38,0.12-0.6,0.12c-0.18,0-0.35-0.03-0.5-0.07
			c-0.15-0.05-0.29-0.12-0.4-0.22c-0.11-0.09-0.2-0.21-0.27-0.34c-0.06-0.13-0.1-0.28-0.1-0.45V35.3c0-0.24,0.06-0.45,0.19-0.62
			c0.13-0.17,0.31-0.31,0.54-0.42c-0.09-0.13-0.16-0.25-0.2-0.38c-0.04-0.12-0.06-0.25-0.06-0.38V33.5c0-0.13,0.02-0.25,0.07-0.37
			c0.05-0.12,0.12-0.22,0.22-0.31c0.1-0.09,0.22-0.16,0.36-0.22c0.14-0.06,0.3-0.08,0.49-0.08c0.16,0,0.31,0.02,0.44,0.07
			c0.13,0.05,0.24,0.12,0.33,0.2c0.09,0.09,0.16,0.19,0.22,0.3c0.05,0.12,0.08,0.24,0.08,0.37v0.01c0,0.13-0.02,0.24-0.06,0.34
			c-0.04,0.1-0.09,0.19-0.16,0.27c-0.07,0.08-0.15,0.15-0.25,0.21c-0.1,0.06-0.2,0.12-0.32,0.16l0.5,0.5
			c0.06-0.1,0.12-0.2,0.18-0.31c0.06-0.11,0.12-0.22,0.18-0.34l0.61,0.33c-0.07,0.13-0.15,0.27-0.23,0.4
			c-0.08,0.14-0.17,0.27-0.26,0.39L84.48,36l-0.61,0.42L83.44,35.98z M82.43,35.72c0.09,0,0.18-0.02,0.28-0.06
			c0.09-0.04,0.18-0.09,0.27-0.16l-0.72-0.73c-0.13,0.06-0.22,0.14-0.27,0.23c-0.05,0.09-0.08,0.17-0.08,0.27v0.01
			c0,0.13,0.05,0.24,0.15,0.32C82.15,35.68,82.28,35.72,82.43,35.72z M82.52,34.02c0.16-0.06,0.29-0.13,0.37-0.21
			c0.08-0.08,0.13-0.17,0.13-0.29v-0.01c0-0.11-0.03-0.19-0.1-0.26c-0.07-0.06-0.15-0.09-0.26-0.09c-0.11,0-0.2,0.03-0.27,0.11
			c-0.07,0.07-0.1,0.16-0.1,0.28v0.01c0,0.08,0.02,0.16,0.05,0.23C82.38,33.85,82.44,33.93,82.52,34.02z"/>
		<path class="st0" d="M90.46,32.58h1.47c0.29,0,0.56,0.05,0.81,0.14c0.25,0.09,0.46,0.23,0.64,0.4c0.18,0.17,0.31,0.37,0.41,0.59
			c0.1,0.23,0.15,0.48,0.15,0.74v0.01c0,0.27-0.05,0.51-0.15,0.74c-0.1,0.23-0.23,0.43-0.41,0.6c-0.18,0.17-0.39,0.3-0.64,0.4
			c-0.25,0.1-0.52,0.15-0.81,0.15h-1.47V32.58z M91.93,35.6c0.17,0,0.32-0.03,0.46-0.08c0.14-0.05,0.26-0.13,0.36-0.23
			c0.1-0.1,0.18-0.22,0.23-0.35c0.06-0.14,0.08-0.29,0.08-0.46v-0.01c0-0.17-0.03-0.32-0.08-0.46c-0.06-0.14-0.13-0.26-0.23-0.36
			c-0.1-0.1-0.22-0.18-0.36-0.23c-0.14-0.06-0.29-0.08-0.46-0.08h-0.64v2.27H91.93z"/>
		<path class="st0" d="M96.56,32.58h2.84v0.74h-2.02v0.76h1.78v0.74h-1.78v0.79h2.05v0.74h-2.86V32.58z"/>
		<path class="st0" d="M103.81,36.41c-0.28,0-0.53-0.05-0.77-0.15c-0.24-0.1-0.44-0.24-0.61-0.41c-0.17-0.17-0.31-0.38-0.4-0.62
			c-0.1-0.24-0.15-0.49-0.15-0.76v-0.01c0-0.27,0.05-0.52,0.15-0.76c0.1-0.24,0.23-0.44,0.4-0.62c0.17-0.18,0.38-0.32,0.62-0.42
			c0.24-0.1,0.51-0.15,0.8-0.15c0.18,0,0.34,0.01,0.48,0.04c0.15,0.03,0.28,0.07,0.4,0.12c0.12,0.05,0.23,0.11,0.33,0.18
			c0.1,0.07,0.19,0.15,0.28,0.24l-0.53,0.61c-0.15-0.13-0.3-0.24-0.45-0.31c-0.15-0.08-0.32-0.11-0.51-0.11
			c-0.16,0-0.3,0.03-0.44,0.09c-0.13,0.06-0.25,0.14-0.35,0.25c-0.1,0.11-0.17,0.23-0.23,0.37c-0.05,0.14-0.08,0.29-0.08,0.45v0.01
			c0,0.16,0.03,0.31,0.08,0.46c0.05,0.14,0.13,0.27,0.22,0.38c0.1,0.11,0.21,0.19,0.35,0.26c0.13,0.06,0.28,0.09,0.44,0.09
			c0.22,0,0.4-0.04,0.55-0.12c0.15-0.08,0.3-0.19,0.44-0.32l0.53,0.53c-0.1,0.1-0.2,0.2-0.3,0.28c-0.1,0.08-0.22,0.15-0.34,0.21
			c-0.12,0.06-0.26,0.1-0.41,0.13C104.16,36.4,104,36.41,103.81,36.41z"/>
		<path class="st0" d="M109.73,36.41c-0.29,0-0.56-0.05-0.8-0.15c-0.24-0.1-0.46-0.24-0.63-0.41c-0.18-0.17-0.32-0.38-0.41-0.61
			c-0.1-0.24-0.15-0.49-0.15-0.76v-0.01c0-0.27,0.05-0.52,0.15-0.76c0.1-0.24,0.24-0.44,0.42-0.62c0.18-0.18,0.39-0.32,0.64-0.42
			c0.25-0.1,0.51-0.15,0.8-0.15c0.29,0,0.56,0.05,0.8,0.15c0.24,0.1,0.45,0.24,0.63,0.41c0.18,0.17,0.32,0.38,0.41,0.61
			c0.1,0.24,0.15,0.49,0.15,0.76v0.01c0,0.27-0.05,0.52-0.15,0.76c-0.1,0.24-0.24,0.44-0.42,0.62c-0.18,0.18-0.39,0.32-0.64,0.42
			C110.29,36.36,110.02,36.41,109.73,36.41z M109.74,35.65c0.16,0,0.32-0.03,0.46-0.09c0.14-0.06,0.26-0.14,0.36-0.25
			c0.1-0.11,0.18-0.23,0.23-0.37c0.06-0.14,0.08-0.29,0.08-0.45v-0.01c0-0.16-0.03-0.31-0.08-0.46c-0.06-0.14-0.13-0.27-0.24-0.38
			c-0.1-0.11-0.22-0.19-0.36-0.26c-0.14-0.06-0.29-0.09-0.46-0.09c-0.17,0-0.32,0.03-0.46,0.09c-0.14,0.06-0.26,0.14-0.35,0.25
			c-0.1,0.11-0.18,0.23-0.23,0.37c-0.06,0.14-0.08,0.29-0.08,0.45v0.01c0,0.16,0.03,0.31,0.08,0.46c0.06,0.14,0.13,0.27,0.24,0.38
			c0.1,0.11,0.22,0.19,0.36,0.26C109.42,35.62,109.57,35.65,109.74,35.65z"/>
		<path class="st0" d="M114.36,32.58h1.72c0.48,0,0.84,0.13,1.1,0.38c0.22,0.22,0.32,0.5,0.32,0.86v0.01c0,0.31-0.07,0.55-0.22,0.75
			c-0.15,0.19-0.34,0.33-0.58,0.42l0.92,1.35h-0.97l-0.81-1.21h-0.01h-0.64v1.21h-0.83V32.58z M116.03,34.41
			c0.2,0,0.36-0.05,0.47-0.14c0.11-0.1,0.16-0.23,0.16-0.39v-0.01c0-0.18-0.06-0.31-0.17-0.4c-0.12-0.09-0.27-0.13-0.48-0.13h-0.82
			v1.08H116.03z"/>
		<path class="st0" d="M121.43,32.55h0.76l1.61,3.79h-0.87l-0.34-0.84H121l-0.35,0.84h-0.84L121.43,32.55z M122.3,34.77l-0.5-1.22
			l-0.5,1.22H122.3z"/>
		<path class="st0" d="M127.15,33.34H126v-0.76h3.12v0.76h-1.15v3h-0.83V33.34z"/>
		<path class="st0" d="M133.47,36.41c-0.29,0-0.56-0.05-0.8-0.15c-0.24-0.1-0.45-0.24-0.63-0.41c-0.18-0.17-0.32-0.38-0.41-0.61
			c-0.1-0.24-0.15-0.49-0.15-0.76v-0.01c0-0.27,0.05-0.52,0.15-0.76c0.1-0.24,0.24-0.44,0.42-0.62c0.18-0.18,0.39-0.32,0.64-0.42
			c0.25-0.1,0.51-0.15,0.81-0.15c0.29,0,0.56,0.05,0.8,0.15c0.24,0.1,0.45,0.24,0.63,0.41c0.18,0.17,0.32,0.38,0.41,0.61
			c0.1,0.24,0.15,0.49,0.15,0.76v0.01c0,0.27-0.05,0.52-0.15,0.76c-0.1,0.24-0.24,0.44-0.42,0.62c-0.18,0.18-0.39,0.32-0.63,0.42
			C134.03,36.36,133.76,36.41,133.47,36.41z M133.48,35.65c0.16,0,0.32-0.03,0.46-0.09c0.14-0.06,0.26-0.14,0.36-0.25
			c0.1-0.11,0.17-0.23,0.23-0.37c0.06-0.14,0.08-0.29,0.08-0.45v-0.01c0-0.16-0.03-0.31-0.08-0.46c-0.06-0.14-0.13-0.27-0.24-0.38
			c-0.1-0.11-0.22-0.19-0.36-0.26c-0.14-0.06-0.29-0.09-0.46-0.09c-0.17,0-0.32,0.03-0.46,0.09c-0.14,0.06-0.26,0.14-0.36,0.25
			c-0.1,0.11-0.18,0.23-0.23,0.37c-0.06,0.14-0.08,0.29-0.08,0.45v0.01c0,0.16,0.03,0.31,0.08,0.46c0.06,0.14,0.13,0.27,0.24,0.38
			c0.1,0.11,0.22,0.19,0.36,0.26C133.16,35.62,133.31,35.65,133.48,35.65z"/>
		<path class="st0" d="M138.1,32.58h1.72c0.48,0,0.84,0.13,1.1,0.38c0.22,0.22,0.32,0.5,0.32,0.86v0.01c0,0.31-0.07,0.55-0.22,0.75
			c-0.15,0.19-0.34,0.33-0.58,0.42l0.92,1.35h-0.97l-0.81-1.21h-0.01h-0.64v1.21h-0.83V32.58z M139.77,34.41
			c0.2,0,0.36-0.05,0.47-0.14c0.11-0.1,0.16-0.23,0.16-0.39v-0.01c0-0.18-0.06-0.31-0.17-0.4c-0.12-0.09-0.28-0.13-0.48-0.13h-0.82
			v1.08H139.77z"/>
		<path class="st0" d="M145.22,36.4c-0.29,0-0.57-0.05-0.85-0.15c-0.28-0.1-0.53-0.25-0.75-0.46l0.49-0.59
			c0.17,0.14,0.35,0.25,0.53,0.33c0.18,0.08,0.38,0.12,0.6,0.12c0.17,0,0.31-0.03,0.4-0.09c0.1-0.06,0.14-0.15,0.14-0.26V35.3
			c0-0.05-0.01-0.1-0.03-0.14c-0.02-0.04-0.06-0.08-0.11-0.12c-0.06-0.04-0.13-0.07-0.23-0.11c-0.1-0.04-0.23-0.07-0.39-0.11
			c-0.19-0.05-0.36-0.1-0.52-0.16c-0.16-0.06-0.29-0.13-0.39-0.21c-0.11-0.08-0.19-0.19-0.25-0.31c-0.06-0.13-0.09-0.28-0.09-0.47
			v-0.01c0-0.17,0.03-0.33,0.1-0.47c0.06-0.14,0.15-0.26,0.27-0.36c0.12-0.1,0.25-0.18,0.42-0.23c0.16-0.05,0.34-0.08,0.53-0.08
			c0.28,0,0.53,0.04,0.76,0.12c0.23,0.08,0.44,0.2,0.64,0.35l-0.43,0.62c-0.17-0.12-0.33-0.21-0.49-0.27
			c-0.16-0.07-0.32-0.1-0.48-0.1c-0.16,0-0.28,0.03-0.36,0.09c-0.08,0.06-0.12,0.14-0.12,0.23v0.01c0,0.06,0.01,0.11,0.04,0.16
			c0.02,0.05,0.07,0.09,0.13,0.12c0.06,0.04,0.14,0.07,0.25,0.1c0.11,0.03,0.24,0.07,0.4,0.11c0.19,0.05,0.36,0.11,0.51,0.17
			c0.15,0.06,0.28,0.14,0.38,0.23c0.1,0.09,0.18,0.19,0.23,0.31c0.05,0.12,0.08,0.26,0.08,0.43v0.01c0,0.19-0.03,0.35-0.1,0.5
			c-0.07,0.14-0.16,0.27-0.28,0.37c-0.12,0.1-0.27,0.17-0.43,0.23C145.61,36.37,145.43,36.4,145.22,36.4z"/>
	</g>
	<polygon class="st0" points="9.54,25.92 7.4,25.92 7.4,10.4 9.54,8.25 	"/>
	<polygon class="st0" points="13.82,25.92 11.68,25.92 11.68,6.11 13.82,3.97 	"/>
	<polygon class="st0" points="5.25,25.92 3.11,25.92 3.11,16.82 0.97,16.82 3.11,14.68 5.25,12.54 	"/>
	<polygon class="st0" points="22.39,25.92 20.25,25.92 20.25,3.97 22.39,6.11 	"/>
	<rect x="24.53" y="6.11" class="st0" width="2.14" height="19.81"/>
	<polygon class="st0" points="30.95,25.92 28.81,25.92 28.81,12.54 30.95,14.68 33.09,16.82 30.95,16.82 	"/>
	<polygon class="st0" points="18.1,17.94 15.96,17.94 15.96,1.83 17.03,0.76 18.1,1.83 	"/>
</g>
</svg>
